<svg xmlns="http://www.w3.org/2000/svg" width="1200" height="750" viewBox="0 0 1200 750" role="img" aria-label="Placeholder cover art for Business Software Installed and Licensed">
  <defs>
    <linearGradient id="bg-ir84nm" x1="0" y1="0" x2="1" y2="1">
      <stop offset="0%" stop-color="#0f1926" />
      <stop offset="100%" stop-color="#0a1018" />
    </linearGradient>
  </defs>

  <rect width="1200" height="750" fill="url(#bg-ir84nm)" />
  <g>
    <line x1="133.33333333333334" y1="0" x2="133.33333333333334" y2="750" stroke="#16263a" stroke-width="1" opacity="0.5" />
    <line x1="266.6666666666667" y1="0" x2="266.6666666666667" y2="750" stroke="#16263a" stroke-width="1" opacity="0.5" />
    <line x1="400" y1="0" x2="400" y2="750" stroke="#16263a" stroke-width="1" opacity="0.5" />
    <line x1="533.3333333333334" y1="0" x2="533.3333333333334" y2="750" stroke="#16263a" stroke-width="1" opacity="0.5" />
    <line x1="666.6666666666666" y1="0" x2="666.6666666666666" y2="750" stroke="#16263a" stroke-width="1" opacity="0.5" />
    <line x1="800" y1="0" x2="800" y2="750" stroke="#16263a" stroke-width="1" opacity="0.5" />
    <line x1="933.3333333333334" y1="0" x2="933.3333333333334" y2="750" stroke="#16263a" stroke-width="1" opacity="0.5" />
    <line x1="1066.6666666666667" y1="0" x2="1066.6666666666667" y2="750" stroke="#16263a" stroke-width="1" opacity="0.5" />
    <line x1="0" y1="125" x2="1200" y2="125" stroke="#16263a" stroke-width="1" opacity="0.5" />
    <line x1="0" y1="250" x2="1200" y2="250" stroke="#16263a" stroke-width="1" opacity="0.5" />
    <line x1="0" y1="375" x2="1200" y2="375" stroke="#16263a" stroke-width="1" opacity="0.5" />
    <line x1="0" y1="500" x2="1200" y2="500" stroke="#16263a" stroke-width="1" opacity="0.5" />
    <line x1="0" y1="625" x2="1200" y2="625" stroke="#16263a" stroke-width="1" opacity="0.5" />
  </g>

  <g>
    <line x1="781.8" y1="384.3" x2="987.4" y2="392.2" stroke="#2a4a6b" stroke-width="1.25" opacity="0.4" />
    <line x1="746.9" y1="126.8" x2="781.8" y2="384.3" stroke="#2a4a6b" stroke-width="1.25" opacity="0.4" />
    <line x1="88.5" y1="400.5" x2="150.3" y2="658.5" stroke="#2a4a6b" stroke-width="1.25" opacity="0.4" />
    <line x1="1045.2" y1="130.3" x2="987.4" y2="392.2" stroke="#c9a227" stroke-width="2" opacity="0.85" />
  </g>
  <g>
    <circle cx="100.1" cy="99.4" r="4.5" fill="#2a4a6b" />
    <circle cx="445.4" cy="112.8" r="4.5" fill="#2a4a6b" />
    <circle cx="746.9" cy="126.8" r="4.5" fill="#2a4a6b" />
    <circle cx="1045.2" cy="130.3" r="4.5" fill="#2a4a6b" />
    <circle cx="88.5" cy="400.5" r="4.5" fill="#2a4a6b" />
    <circle cx="781.8" cy="384.3" r="4.5" fill="#2a4a6b" />
    <circle cx="987.4" cy="392.2" r="4.5" fill="#2a4a6b" />
    <circle cx="150.3" cy="658.5" r="15" fill="none" stroke="#c9a227" stroke-width="1" opacity="0.35" /><circle cx="150.3" cy="658.5" r="8" fill="#d9b64a" />
  </g>

  <!-- Explicit placeholder marker. This is sample content, not real work. -->
  <g>
    <rect x="56" y="642" width="286" height="52" rx="8" fill="#0f1926" stroke="#c9a227" stroke-width="1.25" stroke-dasharray="6 5" />
    <text x="76" y="676" font-family="ui-sans-serif, system-ui, sans-serif" font-size="19" font-weight="700" letter-spacing="2.6" fill="#d9b64a">PLACEHOLDER</text>
  </g>
</svg>
